<?xml version="1.0" encoding="UTF-8"?>
<svg id="Camada_2" data-name="Camada 2" xmlns="http://www.w3.org/2000/svg" xmlns:xlink="http://www.w3.org/1999/xlink" viewBox="0 0 72.78 72.78">
  <defs>
    <style>
      .cls-1 {
        stroke: #000;
        stroke-miterlimit: 10;
      }

      .cls-1, .cls-2 {
        fill: none;
      }

      .cls-3, .cls-2 {
        stroke-width: 0px;
      }

      .cls-4 {
        clip-path: url(#clippath);
      }
    </style>
    <clipPath id="clippath">
      <rect class="cls-2" width="72.78" height="72.78"/>
    </clipPath>
  </defs>
  <g id="Camada_1-2" data-name="Camada 1">
  <rect width="72.78" height="72.78" fill="white"/>
    <g class="cls-4">
      <path class="cls-3" d="m10.67,46.51c.08-1.77,5.8-10.06,8.91-15.03.08-.13.1-.29.05-.43-.5-1.52-.45-1.68.95-1.89,1.15-.17,1.67-.86,2.28-1.68,2.09-2.82,4.12-5.7,6.43-8.33,1.44-1.65,3.3-2.94,5.05-4.3,1.72-1.33,3.74-1.68,5.87-1.4,1.72.23,2.32,1.25,1.43,2.7-1.4,2.28-2.92,4.44-5.17,6.06-3.59,2.61-7.14,5.26-11.53,6.96-.32.12-.41.51-.2.78,2.25,2.87,2.21,6.07,1.89,9.31-.25,2.51-.49,4.53-1.01,7.44-.82,3.96-1.84,7.95-2.89,11.85-.07.26-.27.48-.5.71-.25.25-.68.18-.82-.15-.27-.61.02-1.17.14-1.71,1.07-5.01,2.13-10.01,3.12-15.02.18-1.24.25-1.86.35-3.92.01-.24-.14-.45-.36-.51-2.51-.66-4.79-.41-6.96.54-.76.34-1.4,1.15-1.88,1.88-1.13,1.72-2.12,3.54-3.21,5.29-.3.48-.64.92-1.03,1.36-.16.18-.5.21-.71.07-.2-.13-.21-.36-.2-.6m30.01-30.9c.08-.28-.25-.79-.62-.9-2.32-.67-3.92.62-5.45,1.89-2,1.65-4.01,3.32-5.75,5.23-1.39,1.52-2.38,3.4-3.55,5.12-.27.47-.28.76.46.42,5.62-2.66,13.84-7.99,14.91-11.75m-18.15,15.62c-.89.74-2.65,2.64-3.28,4.37-.12.33.12.68.47.68h4.88c.28,0,.51-.23.5-.52-.05-1.74-.24-3.11-1.52-4.62-.26-.3-.73-.17-1.04.09"/>
      <path class="cls-3" d="m60.92,43.17c-.34-1.88.09-3.57-.17-5.15-.03-.17-.16-.32-.33-.37-2.8-.83-4.97,0-6.32,2.39-.41.72-.8,1.45-1.32,2.4-.17.32-.64.3-.79-.03-.16-.35-.27-.59-.27-.84,0-.43.21-.89.42-1.29,1.64-3.02,3.36-5.98,5.88-8.39.22-.21.42-.45.67-.63,1.56-1.09,3.06-.51,3.35,1.35.13.82.12,1.67.1,2.51-.09,2.66-.2,5.33-.33,7.99-.03.53-.78.57-.88.05m-3.62-6.89c1.21-.05,2.04-.02,3.19-.08.24-.01.41-.23.39-.47-.05-.91-.1-2.05-.15-3.01-.02-.32-.37-.52-.65-.37-1.57.85-2.37,1.9-3.21,3.25-.2.31.05.69.43.68"/>
      <path class="cls-3" d="m41.29,30.55c-1.05,1.19-2.42,2.03-2.74,3.61-.02.11,0,.22.04.32.04.1.08.19.16.24,2.38,1.44,3.14,3.23,2.16,5.74-.85,2.16-2.26,3.97-4.06,5.46-.23.19-.52.44-.79.44-.26,0-.52-.06-.79-.13-.32-.08-.49-.43-.37-.73.09-.22.19-.41.34-.49,1.94-.93,2.84-2.73,3.81-4.44.36-.64.52-1.43.59-2.17.09-1-.32-1.68-1.42-2.01-1.76-.53-1.87-.87-1.3-2.63.6-1.85,1.9-3.11,3.55-4.02.11-.06.25-.08.4-.09.47,0,.72.56.41.92"/>
      <path class="cls-3" d="m48.47,30.55c-1.05,1.19-2.42,2.03-2.73,3.61-.02.11,0,.22.04.32.04.1.08.19.16.23,2.38,1.44,3.88,2.65,3.29,6.64-.21,1.63-.95,10.62-13.75,16.48-.03.01-1.22.46-1.26.47-.53.17-.66.29-.8.29-.26,0-.52-.06-.79-.13-.32-.08-.49-.43-.37-.73.09-.22.18-.43.34-.49,12.51-4.45,14.5-13.67,14.73-14.65.33-1.8.45-2.54.4-3.36-.09-1.25-1.22-2.54-2.32-2.87-1.76-.53-1.87-.87-1.3-2.64.6-1.85,1.9-3.11,3.55-4.01.11-.06.25-.08.4-.09.47,0,.72.56.41.92"/>
      <path class="cls-3" d="m29.79,42.37c.04-2.26,1.47-7.4,2.55-9.72.29-.63,1.24-.35,1.15.33-.38,2.84-2.18,6.89-2.54,9.58,0,.04-.02.09-.04.13-.29.54-1.13.29-1.12-.33"/>
      <path class="cls-3" d="m33.84,28.69c.32.27.63.52.93.77.4.33.32.97-.14,1.18-.37.17-.82.11-1.29-.21-.54-.36-.71-.81-.65-1.29.07-.55.73-.81,1.16-.45"/>
      <path class="cls-1" d="m66.72,36.4c0,16.75-13.58,30.33-30.33,30.33S6.06,53.15,6.06,36.4,19.64,6.07,36.39,6.07s30.33,13.58,30.33,30.33Z"/>
    </g>
  </g>
</svg>